<?xml version="1.0" encoding="UTF-8" standalone="no"?>
<!-- Generator: Adobe Illustrator 16.0.0, SVG Export Plug-In . SVG Version: 6.00 Build 0)  -->

<svg
   id="Layer_1"
   enable-background="new 0 0 814 814"
   xml:space="preserve"
   viewBox="0 0 1054.7867 919.25531"
   version="1.1"
   y="0px"
   x="0px"
   width="1054.7867"
   height="919.25531"
   xmlns="http://www.w3.org/2000/svg"
   xmlns:svg="http://www.w3.org/2000/svg"
   xmlns:rdf="http://www.w3.org/1999/02/22-rdf-syntax-ns#"
   xmlns:cc="http://creativecommons.org/ns#"
   xmlns:dc="http://purl.org/dc/elements/1.1/"><defs
   id="defs3" />


<rect
   style="fill:#fefefe"
   id="rect3"
   width="1054.7867"
   height="919.25531"
   x="0"
   y="0"
   ry="379.0946"
   rx="0" /><g
   id="g3"
   transform="translate(-48.727618,-116.07857)"><path
     d="m 980.12299,860.42903 c 0,38.365 -26.47,69.464 -59.122,69.464 h -689.76 c -32.652,0 -59.122,-31.099 -59.122,-69.464 v -34.728 c 0,-38.364 26.47,-69.462 59.122,-69.462 h 689.76 c 32.652,0 59.122,31.098 59.122,69.462 v 34.73 z"
     id="path1" /><path
     d="m 842.42299,222.64903 c -199.52,-4.725 -198.83,3.373 -328.88,63.133 -149.68,68.79 -220.15,135.08 -269.91,243.75 l 42.109,91.638 c 62.122,17.733 118.85,22.91 181.56,13.027 v -140.26 c 0,-59.999 48.812,-108.81 108.81,-108.81 59.997,0 108.81,48.813 108.81,108.81 v 63.646 c 94.265,-42.935 110.99,-53.532 223.68,-190.92 l -66.18,-144.02 z"
     id="path2" /><path
     d="m 656.58299,688.73903 c 0,44.438 -36.024,80.463 -80.462,80.463 -44.439,0 -80.464,-36.025 -80.464,-80.463 v -194.8 c 0,-44.439 36.025,-80.465 80.464,-80.465 44.438,0 80.462,36.025 80.462,80.465 v 194.81 z"
     id="path3" /></g>
<metadata
   id="metadata3"><rdf:RDF><cc:Work><dc:format>image/svg+xml</dc:format><dc:type
         rdf:resource="http://purl.org/dc/dcmitype/StillImage" /><cc:license
         rdf:resource="http://creativecommons.org/publicdomain/zero/1.0/" /><dc:publisher><cc:Agent
           rdf:about="http://openclipart.org/"><dc:title>Openclipart</dc:title></cc:Agent></dc:publisher></cc:Work><cc:License
       rdf:about="http://creativecommons.org/publicdomain/zero/1.0/"><cc:permits
         rdf:resource="http://creativecommons.org/ns#Reproduction" /><cc:permits
         rdf:resource="http://creativecommons.org/ns#Distribution" /><cc:permits
         rdf:resource="http://creativecommons.org/ns#DerivativeWorks" /></cc:License></rdf:RDF></metadata></svg>
