<?xml version="1.0" standalone="no"?>
<!DOCTYPE svg PUBLIC "-//W3C//DTD SVG 20010904//EN"
 "http://www.w3.org/TR/2001/REC-SVG-20010904/DTD/svg10.dtd">
<svg version="1.0" xmlns="http://www.w3.org/2000/svg"
 width="700.000000pt" height="700.000000pt" viewBox="0 0 700.000000 700.000000"
 preserveAspectRatio="xMidYMid meet">
<metadata>
Created by potrace 1.14, written by Peter Selinger 2001-2017
</metadata>
<g transform="translate(0.000000,700.000000) scale(0.100000,-0.100000)"
fill="#000000" stroke="none">
<path d="M4689 6086 c-2 -2 -49 -7 -104 -10 -55 -3 -136 -11 -180 -17 -115
-15 -145 -20 -270 -45 -16 -3 -83 -21 -148 -40 -161 -47 -343 -120 -642 -259
-38 -18 -92 -43 -120 -55 -27 -13 -93 -43 -145 -67 -52 -25 -144 -68 -205 -96
-893 -416 -1470 -853 -1874 -1421 -33 -48 -61 -91 -61 -96 0 -6 -4 -10 -10
-10 -5 0 -10 -6 -10 -14 0 -8 -3 -16 -8 -18 -7 -3 -55 -81 -112 -183 -40 -71
-148 -290 -151 -305 -3 -19 -6 -11 128 -300 22 -47 79 -173 128 -280 48 -107
93 -200 99 -206 6 -6 35 -18 64 -27 72 -22 358 -83 457 -97 44 -6 94 -13 110
-15 176 -26 648 -27 795 -1 14 3 47 7 75 11 27 3 52 9 55 11 3 3 5 290 6 637
1 348 4 657 7 687 48 411 408 765 821 807 232 24 444 -28 631 -155 201 -137
332 -329 391 -577 14 -57 18 -130 19 -398 1 -180 5 -331 9 -334 9 -9 358 156
511 242 309 173 538 374 910 799 33 38 65 74 70 80 6 6 69 81 140 166 71 85
132 157 135 160 3 3 23 28 44 55 22 28 44 55 50 60 36 32 55 67 47 88 -5 12
-79 175 -166 362 -86 187 -161 349 -165 360 -4 11 -31 69 -59 129 -28 59 -51
110 -51 112 0 17 -121 252 -131 256 -16 6 -1084 9 -1090 4z"/>
<path d="M3350 4424 c-36 -7 -108 -35 -160 -60 -77 -38 -110 -62 -176 -129
-67 -67 -90 -98 -128 -176 -78 -162 -75 -117 -75 -1155 0 -891 0 -924 20 -995
44 -162 130 -292 257 -390 l33 -25 -1293 0 c-711 -1 -1318 -4 -1350 -7 -188
-21 -361 -184 -422 -398 -25 -84 -26 -105 -27 -339 -1 -220 1 -242 27 -344 50
-194 218 -363 395 -396 33 -6 1115 -10 3058 -10 3288 0 3061 -4 3171 56 129
70 249 235 276 379 2 11 7 40 12 65 10 53 8 469 -2 520 -46 229 -199 407 -396
461 -34 9 -359 12 -1363 12 l-1319 1 65 58 c131 117 212 265 233 425 4 32 8
456 8 943 1 1000 2 981 -73 1133 -87 174 -232 299 -417 357 -87 28 -259 35
-354 14z"/>
</g>
</svg>
